<svg width="179" height="24" viewBox="0 0 179 24" fill="none" xmlns="http://www.w3.org/2000/svg">
<path d="M19 12H5" stroke="#A85252" stroke-width="2.5" stroke-linecap="round" stroke-linejoin="round"/>
<path d="M12 19L5 12L12 5" stroke="#A85252" stroke-width="2.5" stroke-linecap="round" stroke-linejoin="round"/>
<path d="M45.8711 14.8271L48.7715 5.20312H51.707L47.251 18H44.5L40.0615 5.20312H42.9883L45.8711 14.8271ZM51.9531 13.1572C51.9531 12.2139 52.1348 11.373 52.498 10.6348C52.8613 9.89648 53.3828 9.3252 54.0625 8.9209C54.748 8.5166 55.542 8.31445 56.4443 8.31445C57.7275 8.31445 58.7734 8.70703 59.582 9.49219C60.3965 10.2773 60.8506 11.3438 60.9443 12.6914L60.9619 13.3418C60.9619 14.8008 60.5547 15.9727 59.7402 16.8574C58.9258 17.7363 57.833 18.1758 56.4619 18.1758C55.0908 18.1758 53.9951 17.7363 53.1748 16.8574C52.3604 15.9785 51.9531 14.7832 51.9531 13.2715V13.1572ZM54.4932 13.3418C54.4932 14.2441 54.6631 14.9355 55.0029 15.416C55.3428 15.8906 55.8291 16.1279 56.4619 16.1279C57.0771 16.1279 57.5576 15.8936 57.9033 15.4248C58.249 14.9502 58.4219 14.1943 58.4219 13.1572C58.4219 12.2725 58.249 11.5869 57.9033 11.1006C57.5576 10.6143 57.0713 10.3711 56.4443 10.3711C55.8232 10.3711 55.3428 10.6143 55.0029 11.1006C54.6631 11.5811 54.4932 12.3281 54.4932 13.3418ZM65.207 18H62.6582V4.5H65.207V18ZM70.3486 6.15234V8.49023H71.9746V10.3535H70.3486V15.0996C70.3486 15.4512 70.416 15.7031 70.5508 15.8555C70.6855 16.0078 70.9434 16.084 71.3242 16.084C71.6055 16.084 71.8545 16.0635 72.0713 16.0225V17.9473C71.5732 18.0996 71.0605 18.1758 70.5332 18.1758C68.752 18.1758 67.8438 17.2764 67.8086 15.4775V10.3535H66.4199V8.49023H67.8086V6.15234H70.3486ZM78.9004 18C78.7832 17.7715 78.6982 17.4873 78.6455 17.1475C78.0303 17.833 77.2305 18.1758 76.2461 18.1758C75.3145 18.1758 74.541 17.9062 73.9258 17.3672C73.3164 16.8281 73.0117 16.1484 73.0117 15.3281C73.0117 14.3203 73.3838 13.5469 74.1279 13.0078C74.8779 12.4688 75.959 12.1963 77.3711 12.1904H78.54V11.6455C78.54 11.2061 78.4258 10.8545 78.1973 10.5908C77.9746 10.3271 77.6201 10.1953 77.1338 10.1953C76.7061 10.1953 76.3691 10.2979 76.123 10.5029C75.8828 10.708 75.7627 10.9893 75.7627 11.3467H73.2227C73.2227 10.7959 73.3926 10.2861 73.7324 9.81738C74.0723 9.34863 74.5527 8.98242 75.1738 8.71875C75.7949 8.44922 76.4922 8.31445 77.2656 8.31445C78.4375 8.31445 79.3662 8.61035 80.0518 9.20215C80.7432 9.78809 81.0889 10.6143 81.0889 11.6807V15.8027C81.0947 16.7051 81.2207 17.3877 81.4668 17.8506V18H78.9004ZM76.7998 16.2334C77.1748 16.2334 77.5205 16.1514 77.8369 15.9873C78.1533 15.8174 78.3877 15.5918 78.54 15.3105V13.6758H77.5908C76.3193 13.6758 75.6426 14.1152 75.5605 14.9941L75.5518 15.1436C75.5518 15.46 75.6631 15.7207 75.8857 15.9258C76.1084 16.1309 76.4131 16.2334 76.7998 16.2334ZM88.3838 10.8721C88.0381 10.8252 87.7334 10.8018 87.4697 10.8018C86.5088 10.8018 85.8789 11.127 85.5801 11.7773V18H83.04V8.49023H85.4395L85.5098 9.62402C86.0195 8.75098 86.7256 8.31445 87.6279 8.31445C87.9092 8.31445 88.1729 8.35254 88.4189 8.42871L88.3838 10.8721ZM102.657 13.333C102.657 14.7979 102.323 15.9727 101.655 16.8574C100.993 17.7363 100.097 18.1758 98.9658 18.1758C98.0049 18.1758 97.2285 17.8418 96.6367 17.1738V21.6562H94.0967V8.49023H96.4521L96.54 9.42188C97.1553 8.68359 97.958 8.31445 98.9482 8.31445C100.12 8.31445 101.031 8.74805 101.682 9.61523C102.332 10.4824 102.657 11.6777 102.657 13.2012V13.333ZM100.117 13.1484C100.117 12.2637 99.959 11.5811 99.6426 11.1006C99.332 10.6201 98.8779 10.3799 98.2803 10.3799C97.4834 10.3799 96.9355 10.6846 96.6367 11.2939V15.1875C96.9473 15.8145 97.501 16.1279 98.2979 16.1279C99.5107 16.1279 100.117 15.1348 100.117 13.1484ZM109.75 18C109.633 17.7715 109.548 17.4873 109.495 17.1475C108.88 17.833 108.08 18.1758 107.096 18.1758C106.164 18.1758 105.391 17.9062 104.775 17.3672C104.166 16.8281 103.861 16.1484 103.861 15.3281C103.861 14.3203 104.233 13.5469 104.978 13.0078C105.728 12.4688 106.809 12.1963 108.221 12.1904H109.39V11.6455C109.39 11.2061 109.275 10.8545 109.047 10.5908C108.824 10.3271 108.47 10.1953 107.983 10.1953C107.556 10.1953 107.219 10.2979 106.973 10.5029C106.732 10.708 106.612 10.9893 106.612 11.3467H104.072C104.072 10.7959 104.242 10.2861 104.582 9.81738C104.922 9.34863 105.402 8.98242 106.023 8.71875C106.645 8.44922 107.342 8.31445 108.115 8.31445C109.287 8.31445 110.216 8.61035 110.901 9.20215C111.593 9.78809 111.938 10.6143 111.938 11.6807V15.8027C111.944 16.7051 112.07 17.3877 112.316 17.8506V18H109.75ZM107.649 16.2334C108.024 16.2334 108.37 16.1514 108.687 15.9873C109.003 15.8174 109.237 15.5918 109.39 15.3105V13.6758H108.44C107.169 13.6758 106.492 14.1152 106.41 14.9941L106.401 15.1436C106.401 15.46 106.513 15.7207 106.735 15.9258C106.958 16.1309 107.263 16.2334 107.649 16.2334ZM119.233 10.8721C118.888 10.8252 118.583 10.8018 118.319 10.8018C117.358 10.8018 116.729 11.127 116.43 11.7773V18H113.89V8.49023H116.289L116.359 9.62402C116.869 8.75098 117.575 8.31445 118.478 8.31445C118.759 8.31445 119.022 8.35254 119.269 8.42871L119.233 10.8721ZM125.711 18C125.594 17.7715 125.509 17.4873 125.456 17.1475C124.841 17.833 124.041 18.1758 123.057 18.1758C122.125 18.1758 121.352 17.9062 120.736 17.3672C120.127 16.8281 119.822 16.1484 119.822 15.3281C119.822 14.3203 120.194 13.5469 120.938 13.0078C121.688 12.4688 122.77 12.1963 124.182 12.1904H125.351V11.6455C125.351 11.2061 125.236 10.8545 125.008 10.5908C124.785 10.3271 124.431 10.1953 123.944 10.1953C123.517 10.1953 123.18 10.2979 122.934 10.5029C122.693 10.708 122.573 10.9893 122.573 11.3467H120.033C120.033 10.7959 120.203 10.2861 120.543 9.81738C120.883 9.34863 121.363 8.98242 121.984 8.71875C122.605 8.44922 123.303 8.31445 124.076 8.31445C125.248 8.31445 126.177 8.61035 126.862 9.20215C127.554 9.78809 127.899 10.6143 127.899 11.6807V15.8027C127.905 16.7051 128.031 17.3877 128.277 17.8506V18H125.711ZM123.61 16.2334C123.985 16.2334 124.331 16.1514 124.647 15.9873C124.964 15.8174 125.198 15.5918 125.351 15.3105V13.6758H124.401C123.13 13.6758 122.453 14.1152 122.371 14.9941L122.362 15.1436C122.362 15.46 122.474 15.7207 122.696 15.9258C122.919 16.1309 123.224 16.2334 123.61 16.2334ZM136.812 9.52734C137.485 8.71875 138.332 8.31445 139.352 8.31445C141.414 8.31445 142.46 9.5127 142.489 11.9092V18H139.949V11.9795C139.949 11.4346 139.832 11.0332 139.598 10.7754C139.363 10.5117 138.974 10.3799 138.429 10.3799C137.685 10.3799 137.146 10.667 136.812 11.2412V18H134.271V4.5H136.812V9.52734ZM144.01 13.1572C144.01 12.2139 144.191 11.373 144.555 10.6348C144.918 9.89648 145.439 9.3252 146.119 8.9209C146.805 8.5166 147.599 8.31445 148.501 8.31445C149.784 8.31445 150.83 8.70703 151.639 9.49219C152.453 10.2773 152.907 11.3438 153.001 12.6914L153.019 13.3418C153.019 14.8008 152.611 15.9727 151.797 16.8574C150.982 17.7363 149.89 18.1758 148.519 18.1758C147.147 18.1758 146.052 17.7363 145.231 16.8574C144.417 15.9785 144.01 14.7832 144.01 13.2715V13.1572ZM146.55 13.3418C146.55 14.2441 146.72 14.9355 147.06 15.416C147.399 15.8906 147.886 16.1279 148.519 16.1279C149.134 16.1279 149.614 15.8936 149.96 15.4248C150.306 14.9502 150.479 14.1943 150.479 13.1572C150.479 12.2725 150.306 11.5869 149.96 11.1006C149.614 10.6143 149.128 10.3711 148.501 10.3711C147.88 10.3711 147.399 10.6143 147.06 11.1006C146.72 11.5811 146.55 12.3281 146.55 13.3418ZM156.965 8.49023L157.044 9.55371C157.718 8.72754 158.629 8.31445 159.777 8.31445C161.002 8.31445 161.843 8.79785 162.3 9.76465C162.968 8.79785 163.92 8.31445 165.156 8.31445C166.188 8.31445 166.955 8.61621 167.459 9.21973C167.963 9.81738 168.215 10.7197 168.215 11.9268V18H165.666V11.9355C165.666 11.3965 165.561 11.0039 165.35 10.7578C165.139 10.5059 164.767 10.3799 164.233 10.3799C163.472 10.3799 162.944 10.7432 162.651 11.4697L162.66 18H160.12V11.9443C160.12 11.3936 160.012 10.9951 159.795 10.749C159.578 10.5029 159.209 10.3799 158.688 10.3799C157.967 10.3799 157.445 10.6787 157.123 11.2764V18H154.583V8.49023H156.965ZM174.552 18.1758C173.157 18.1758 172.021 17.748 171.142 16.8926C170.269 16.0371 169.832 14.8975 169.832 13.4736V13.2275C169.832 12.2725 170.017 11.4199 170.386 10.6699C170.755 9.91406 171.276 9.33398 171.95 8.92969C172.63 8.51953 173.403 8.31445 174.271 8.31445C175.571 8.31445 176.594 8.72461 177.338 9.54492C178.088 10.3652 178.463 11.5283 178.463 13.0342V14.0713H172.407C172.489 14.6924 172.735 15.1904 173.146 15.5654C173.562 15.9404 174.086 16.1279 174.719 16.1279C175.697 16.1279 176.462 15.7734 177.013 15.0645L178.261 16.4619C177.88 17.001 177.364 17.4229 176.714 17.7275C176.063 18.0264 175.343 18.1758 174.552 18.1758ZM174.262 10.3711C173.758 10.3711 173.348 10.541 173.031 10.8809C172.721 11.2207 172.521 11.707 172.434 12.3398H175.967V12.1377C175.955 11.5752 175.803 11.1416 175.51 10.8369C175.217 10.5264 174.801 10.3711 174.262 10.3711Z" fill="#41414D"/>
</svg>
